<?xml version="1.0" encoding="utf-8"?>
<!-- Generator: Adobe Illustrator 25.0.0, SVG Export Plug-In . SVG Version: 6.00 Build 0)  -->
<svg version="1.1" id="Camada_1" xmlns="http://www.w3.org/2000/svg" xmlns:xlink="http://www.w3.org/1999/xlink" x="0px" y="0px"
	 viewBox="0 0 395.79 284.31" style="enable-background:new 0 0 395.79 284.31;" xml:space="preserve">
<style type="text/css">
	.st0{fill:#1D74AC;}
	.st1{fill:#80D1F3;}
	.st2{fill:#0C70B4;}
</style>
<path class="st0" d="M0,213.1c0-3.06,0-6.13,0-9.19c3.06-31.5,19.44-53.53,47.99-66.53c4.03-1.83,5.44-3.6,5.16-7.87
	c-1.84-27.14,4.33-52.4,19.38-75.08c20.05-30.2,48.28-47.91,84.16-53.46c3.13-0.48,6.19-1.04,9.36-0.79
	c1.72,1.32,3.4,1.51,5.01-0.18c32.7-0.07,61.01,10.9,84.68,33.59c12.02,11.53,21.28,24.99,28.25,40.1c1.17,2.53,1.06,4.49-0.4,6.9
	c-39.33,64.74-78.75,129.43-117.65,194.44c-4.27,7.14-8.61,10.3-16.62,9.01c-3.04-0.49-6.23-0.08-10.31-0.08
	c26.68-44.1,52.95-87.54,79.85-132.02c-8.99,0-17.02-0.03-25.04,0.02c-2.35,0.02-2.61,2.38-3.46,3.77
	c-25.05,41.18-50.07,82.38-74.89,123.7c-2.08,3.46-4.16,4.88-8.13,4.61c-4.97-0.34-9.97-0.08-15.13-0.08
	c-0.32-1.99,1.03-3.11,1.82-4.41c24.39-40.43,48.81-80.84,73.22-121.26c0.17-0.28,0.44-0.53,0.54-0.84c0.56-1.69,2.88-3.1,1.97-4.79
	c-0.94-1.75-3.32-0.68-5.04-0.73c-4.99-0.13-10,0.16-14.99-0.11c-3.43-0.19-5.31,1.05-7.1,4.02
	c-23.42,38.7-46.99,77.31-70.52,115.95c-0.52,0.85-1.04,1.7-1.56,2.55c-6.46,10.51-6.59,10.84-18.12,6.42
	C23.63,269.7,5.68,249.52,0.99,218.49C0.71,216.68,0.33,214.89,0,213.1z"/>
<path class="st1" d="M186.66,283.68c9.38-15.51,18.29-30.28,27.25-45.02c30.64-50.43,61.35-100.82,91.83-151.34
	c2.79-4.62,4.97-6.13,10.75-4.49c43.41,12.33,70.65,40.25,77.86,84.64c4.99,30.72-2.94,59.29-24.43,83.3
	c-15.5,17.31-35.38,26.51-56.97,33.02c-0.92,0.28-1.98,0.15-2.98,0.15c-39.81,0.01-79.62,0.01-119.43,0
	C189.56,283.94,188.58,283.81,186.66,283.68z"/>
<path class="st2" d="M171.05,0c-1.55,3.31-3.23,3.3-5.01,0.18C167.71,0.12,169.38,0.06,171.05,0z"/>
</svg>
