<?xml version="1.0" encoding="utf-8"?>
<!-- Generator: Adobe Illustrator 26.1.0, SVG Export Plug-In . SVG Version: 6.00 Build 0)  -->
<svg version="1.1" id="Camada_1" xmlns="http://www.w3.org/2000/svg" xmlns:xlink="http://www.w3.org/1999/xlink" x="0px" y="0px"
	 viewBox="0 0 560 560" style="enable-background:new 0 0 560 560;" xml:space="preserve">
<style type="text/css">
	.st0{fill:#221F20;}
</style>
<path class="st0" d="M365.9,491.8c-11,10.2-26.8,18-33,29.7c-6.8,12.8-1.9,28.6,10.9,35.4c12.8,6.7,28.6,1.9,35.4-10.9
	c6.2-11.8,3.8-29.2,6-44c3.3-22.2,7-36.5,7-36.5C392.1,465.5,382.5,476.6,365.9,491.8L365.9,491.8z"/>
<path class="st0" d="M228.2,491.8c-11.1,10.2-26.8,18-33,29.7c-6.8,12.8-1.9,28.6,10.9,35.4c12.8,6.7,28.6,1.9,35.4-10.9
	c6.2-11.8,3.8-29.2,6-44c3.2-22.2,7-36.5,7-36.5C254.4,465.5,244.8,476.6,228.2,491.8L228.2,491.8z"/>
<path class="st0" d="M90.5,491.8c-11.1,10.2-26.8,18-33,29.7c-6.8,12.8-1.9,28.6,10.9,35.4c12.8,6.7,28.6,1.9,35.4-10.9
	c6.2-11.8,3.8-29.2,6-44c3.2-22.2,7-36.5,7-36.5C116.7,465.5,107.1,476.6,90.5,491.8L90.5,491.8z"/>
<path class="st0" d="M95.8,437.7v0.4h308.8c46.5,0,84.2-37.7,84.2-84.2c0-46.5-37.7-84.2-84.2-84.2c-4.8,0-9.5,0.5-14.1,1.3
	c-15.5-49.8-60.5-86.5-114.4-90.1v0.1c-2.9-0.2-5.7-0.4-8.6-0.4c-3.9,0-7.8,0.2-11.6,0.6c-1,0.1-2,0.2-3,0.3
	c-3.5,0.4-7,0.9-10.5,1.6c-0.3,0-0.6,0.1-0.9,0.1c-3.6,0.7-7,1.7-10.5,2.7c-1.1,0.3-2.2,0.7-3.4,1c-2.8,0.9-5.5,1.9-8.1,3
	c-1.1,0.4-2.1,0.9-3.2,1.3c-2.7,1.2-5.4,2.5-8,3.8c-1.4,0.7-2.7,1.4-4.1,2.2c-1.8,1-3.6,2.1-5.4,3.3c-2.1,1.3-4.1,2.7-6.1,4.1
	c-1.6,1.2-3.2,2.3-4.8,3.5c-1.5,1.2-3,2.4-4.4,3.7c-1.1,1-2.2,1.9-3.2,2.9c-2.6,2.4-5.1,4.9-7.5,7.5c-0.8,0.9-1.6,1.7-2.4,2.6
	c-1.4,1.6-2.8,3.3-4.1,4.9c-0.8,1-1.5,1.9-2.2,2.9c-1.1,1.5-2.1,3-3.1,4.6c-11.7,18.6-18.6,40.5-18.6,64l-18.1,0
	c0-23.2,5.8-45,15.8-64.2c-11.3-4.3-23.5-6.9-36.3-6.9C46.6,230.1,0,276.7,0,334.1C0,388.8,42.2,433.5,95.8,437.7L95.8,437.7z"/>
<path class="st0" d="M400.4,130.8c-16.2-10.3-34.3-15.2-52.2-15.2c-31.9,0-63.2,15.7-81.9,44.3c0.4,0,0.8,0,1.2,0
	c3.1,0,6.1,0.2,9.1,0.4l0.9,0c55.5,3.7,104.6,38.6,126.9,88.8h0.2c11.1,0,21.8,1.8,31.9,5C456.6,210.4,442,157.3,400.4,130.8
	L400.4,130.8z"/>
<path class="st0" d="M188,182.9c2-1.3,4.1-2.5,6.2-3.7c1.6-0.9,3.2-1.8,4.8-2.6c3.3-1.7,6.3-3.2,9.2-4.4c1-0.4,2-0.8,3-1.2l0.8-0.3
	c3.2-1.3,6.4-2.5,9.4-3.4c1.3-0.4,2.6-0.9,4-1.3c4.6-1.3,8.5-2.3,11.8-3c0.6-0.1,1.2-0.2,1.8-0.3c0.8-0.1,1.6-0.3,2.5-0.4
	c2.1-4.3,4.3-8.6,6.9-12.7c21.8-34.2,59.2-54.7,99.9-54.7c22.5,0,44.4,6.4,63.3,18.5c26.6,16.9,45,43.3,51.9,74.2
	c5.7,25.5,2.7,51.5-8,74.8c7.7,4.3,14.8,9.6,21.2,15.6c6.3-3.8,14.4-6,23.9-6.1l59.5-0.6L508.2,240c-28.4-17.1-30.9-46.7-5.6-65.8
	l46.1-34.8l-59.2,3.8c-32.5,2.1-52.3-21.2-43.9-51.7l15.2-55.6l-44,37.3c-24.1,20.5-53.6,12.4-65.5-17.9L329.8,0l-12,56.5
	c-6.6,31.1-34.5,41.3-62,22.7l-50.1-33.8l24.6,54.2c13.5,29.7-2.2,54.3-34.8,54.7L136,155l49.4,29.6
	C186.3,184,187.1,183.4,188,182.9L188,182.9z"/>
</svg>
