<?xml version="1.0" encoding="utf-8"?>
<!-- Generator: Adobe Illustrator 26.1.0, SVG Export Plug-In . SVG Version: 6.00 Build 0)  -->
<svg version="1.1" id="Camada_1" xmlns="http://www.w3.org/2000/svg" xmlns:xlink="http://www.w3.org/1999/xlink" x="0px" y="0px"
	 viewBox="0 0 560 560" style="enable-background:new 0 0 560 560;" xml:space="preserve">
<style type="text/css">
	.st0{fill:#221F20;}
</style>
<path class="st0" d="M78.6,380.9v0.3h253.5c38.2,0,69.1-31,69.1-69.2c0-38.2-31-69.1-69.1-69.1c-3.9,0-7.8,0.4-11.5,1.1
	c-12.7-40.9-49.6-71.1-94-74v0.1c-2.3-0.2-4.7-0.4-7-0.4c-3.2,0-6.4,0.2-9.5,0.5c-0.8,0.1-1.6,0.2-2.5,0.2c-2.9,0.3-5.8,0.8-8.6,1.3
	c-0.2,0.1-0.5,0.1-0.7,0.1c-2.9,0.6-5.8,1.4-8.6,2.2c-0.9,0.3-1.9,0.6-2.8,0.9c-2.3,0.7-4.5,1.6-6.7,2.4c-0.9,0.4-1.8,0.7-2.6,1.1
	c-2.2,1-4.4,2-6.5,3.1c-1.1,0.6-2.2,1.2-3.3,1.8c-1.5,0.9-3,1.8-4.5,2.7c-1.7,1.1-3.3,2.2-5,3.3c-1.3,1-2.6,1.9-3.9,2.9
	c-1.2,1-2.4,2-3.6,3c-0.9,0.8-1.8,1.6-2.7,2.4c-2.1,2-4.2,4-6.1,6.1c-0.7,0.7-1.3,1.4-2,2.2c-1.2,1.3-2.3,2.7-3.3,4.1
	c-0.6,0.8-1.2,1.6-1.8,2.4c-1.8,2.4-3.4,4.8-5,7.4l-8.6-1.4c-10.9-5.1-23-8.1-35.8-8.1C38.2,210.4,0,248.7,0,295.9
	C0,340.7,34.6,377.5,78.6,380.9L78.6,380.9z"/>
<path class="st0" d="M334.4,222.2c43.2,1.1,78.9,32.8,86.2,74.2c5.1,0.6,10.3,0.9,15.6,0.9c17.4,0,35.1-3.1,52.3-9.6
	c30.5-11.5,54.9-32.2,71.5-57.6c-12.8,4.4-25.8,6.4-38.7,6.4c-49.4,0-95.9-30.7-113.4-79.7c-21.6-60.5,8.6-127.1,67.3-151.5
	C462.3,1.9,448.8,0,435.2,0c-17.3,0-34.8,3-51.9,9.5c-66.3,25-104.2,92.9-94.6,160.3C308.3,182.6,324.3,200.7,334.4,222.2
	L334.4,222.2z"/>
<path class="st0" d="M218.2,402h-71.8l-36.9,58.9h79.9L151.2,560l140.2-141.4l-83.2-0.2L218.2,402z"/>
</svg>
