<?xml version="1.0" encoding="utf-8"?>
<!-- Generator: Adobe Illustrator 26.1.0, SVG Export Plug-In . SVG Version: 6.00 Build 0)  -->
<svg version="1.1" id="Camada_1" xmlns="http://www.w3.org/2000/svg" xmlns:xlink="http://www.w3.org/1999/xlink" x="0px" y="0px"
	 viewBox="0 0 699.1 560" style="enable-background:new 0 0 699.1 560;" xml:space="preserve">
<style type="text/css">
	.st0{fill:#221F20;}
</style>
<path class="st0" d="M148.8,236.6c20.5,0,41.1,3.9,61.1,11.5l4.8,1.8c1-1.4,2.1-2.8,3.1-4c2.2-2.8,4.4-5.5,6.6-8
	c1-1.2,2-2.3,3.1-3.4l1-1c4.1-4.4,8.1-8.4,12-12c1.7-1.6,3.5-3.2,5.5-5c2.3-2,4.7-3.9,7.2-5.9c2.5-1.9,5.1-3.8,7.7-5.7
	c3.2-2.3,6.5-4.5,9.9-6.7c2.9-1.8,5.8-3.6,8.9-5.3c2.2-1.2,4.3-2.4,6.5-3.5c4.6-2.4,8.9-4.4,13-6.2c1.6-0.7,3.3-1.3,5.2-2.1
	c4.4-1.8,8.9-3.4,13.3-4.8c1.9-0.6,3.7-1.2,5.5-1.7c6.2-1.8,11.9-3.3,17.6-4.5l1-0.2c5.4-1.1,11-1.9,17.1-2.6
	c1.6-0.2,3.3-0.4,4.9-0.5c7.1-0.6,13.1-0.9,18.9-0.9c4.4,0,8.6,0.3,12.2,0.6l1.7,0c78.9,5.2,148.5,55.3,179.3,127c0.9,0,1.9,0,2.8,0
	c15.2,0,29.9,2.3,43.6,6.6c44-10,76.8-49.3,76.8-96.3c0-54.6-44.3-98.9-98.9-98.9c-5.7,0-11.1,0.6-16.5,1.5
	C565.4,47.7,512.7,4.6,449.3,0.4v0.1C446,0.3,442.6,0,439.3,0c-4.6,0-9.1,0.3-13.6,0.7c-1.2,0.1-2.3,0.2-3.5,0.3
	c-4.1,0.5-8.3,1.1-12.3,1.9c-0.3,0.1-0.7,0.1-1,0.2c-4.2,0.8-8.3,1.9-12.3,3.1c-1.3,0.4-2.6,0.8-3.9,1.2c-3.2,1-6.4,2.2-9.6,3.5
	c-1.3,0.5-2.5,1-3.8,1.5c-3.2,1.4-6.3,2.9-9.4,4.5c-1.6,0.8-3.1,1.7-4.7,2.6c-2.2,1.2-4.3,2.5-6.4,3.8c-2.4,1.5-4.8,3.1-7.1,4.8
	c-1.9,1.4-3.8,2.7-5.6,4.2c-1.8,1.4-3.5,2.8-5.2,4.3c-1.3,1.1-2.6,2.3-3.8,3.4c-3,2.8-5.9,5.7-8.8,8.8c-1,1-1.9,2-2.9,3.1
	c-1.6,1.9-3.2,3.8-4.8,5.8c-0.9,1.1-1.7,2.2-2.6,3.4c-2.5,3.4-4.9,6.9-7.2,10.5l-12.4-1.9c-15.6-7.3-32.8-11.6-51.2-11.6
	c-67.5,0-122.1,54.7-122.1,122.1c0,20.5,5.2,39.8,14.2,56.8C142.5,236.9,145.6,236.6,148.8,236.6L148.8,236.6z"/>
<path class="st0" d="M137,559.4v0.6h441.6c66.5,0,120.5-53.9,120.5-120.4c0-66.5-53.9-120.5-120.5-120.5c-6.9,0-13.6,0.7-20.1,1.8
	c-22.2-71.2-86.4-123.8-163.7-128.9v0.1c-4-0.3-8.1-0.6-12.2-0.6c-5.6,0-11.1,0.3-16.6,0.8c-1.4,0.1-2.8,0.3-4.2,0.4
	c-5.1,0.6-10.1,1.3-15,2.3c-0.4,0.1-0.8,0.1-1.2,0.2c-5.1,1-10.1,2.4-15,3.8c-1.6,0.5-3.2,1-4.8,1.5c-3.9,1.3-7.8,2.7-11.7,4.2
	c-1.5,0.6-3.1,1.2-4.6,1.9c-3.9,1.7-7.7,3.5-11.4,5.4c-1.9,1-3.9,2.1-5.8,3.1c-2.6,1.5-5.2,3.1-7.7,4.7c-2.9,1.9-5.8,3.8-8.7,5.8
	c-2.3,1.6-4.6,3.3-6.8,5c-2.1,1.7-4.3,3.5-6.3,5.3c-1.6,1.4-3.1,2.8-4.6,4.2c-3.7,3.4-7.3,7-10.7,10.7c-1.2,1.3-2.3,2.5-3.5,3.8
	c-2,2.3-3.9,4.7-5.9,7.1c-1.1,1.4-2.1,2.8-3.2,4.1c-1.5,2.1-2.9,4.3-4.4,6.5c-16.7,26.6-26.5,57.9-26.6,91.6l-25.9,0
	c0-33.2,8.2-64.4,22.6-91.8c-16.2-6.2-33.6-9.9-51.9-9.9C66.6,262.5,0,329.1,0,411.2C0,489.4,60.4,553.4,137,559.4L137,559.4z"/>
</svg>
