<?xml version="1.0" encoding="utf-8"?>
<!-- Generator: Adobe Illustrator 26.1.0, SVG Export Plug-In . SVG Version: 6.00 Build 0)  -->
<svg version="1.1" id="Camada_1" xmlns="http://www.w3.org/2000/svg" xmlns:xlink="http://www.w3.org/1999/xlink" x="0px" y="0px"
	 viewBox="0 0 560 560" style="enable-background:new 0 0 560 560;" xml:space="preserve">
<style type="text/css">
	.st0{fill:#221F20;}
</style>
<path class="st0" d="M228.2,491.8c-11,10.2-26.8,18-33,29.7c-6.8,12.8-1.9,28.6,10.9,35.4c12.8,6.7,28.6,1.8,35.4-10.9
	c6.2-11.8,3.8-29.2,6-44c3.3-22.3,7-36.5,7-36.5C254.4,465.5,244.8,476.6,228.2,491.8L228.2,491.8z"/>
<path class="st0" d="M90.5,491.8c-11.1,10.2-26.8,18-33,29.7c-6.8,12.8-1.9,28.6,10.9,35.4c12.8,6.7,28.6,1.8,35.4-10.9
	c6.2-11.8,3.8-29.2,6-44c3.2-22.3,7-36.5,7-36.5C116.7,465.5,107.1,476.6,90.5,491.8L90.5,491.8z"/>
<path class="st0" d="M365.9,491.8c-11,10.2-26.8,18-33,29.7c-6.8,12.8-1.9,28.6,10.9,35.4c12.8,6.7,28.6,1.8,35.4-10.9
	c6.2-11.8,3.8-29.2,6-44c3.3-22.3,7-36.5,7-36.5C392.1,465.5,382.5,476.6,365.9,491.8L365.9,491.8z"/>
<path class="st0" d="M404.3,249h0.2c33.3,0,62.9,15.6,82.2,39.8c0.5-0.2,1.1-0.3,1.6-0.5c30.5-11.5,54.9-32.2,71.6-57.7
	c-12.8,4.4-25.9,6.5-38.7,6.5c-49.5,0-96-30.7-113.6-79.8C386,96.6,416.2,29.8,475,5.5C462.1,1.9,448.7,0,435,0
	c-17.3,0-34.9,3-52,9.5c-63.5,24-100.9,87.2-95.7,151.7C338.8,168.1,383.4,201.8,404.3,249L404.3,249z"/>
<path class="st0" d="M95.8,437.7v0.4h308.8c46.5,0,84.2-37.7,84.2-84.2c0-46.5-37.7-84.2-84.2-84.2c-4.8,0-9.5,0.5-14.1,1.3
	c-15.5-49.8-60.4-86.5-114.5-90.1v0.1c-2.8-0.2-5.7-0.4-8.5-0.4c-3.9,0-7.8,0.2-11.6,0.6c-1,0.1-2,0.2-3,0.3
	c-3.5,0.4-7.1,0.9-10.5,1.6c-0.3,0-0.6,0.1-0.9,0.1c-3.6,0.7-7,1.7-10.5,2.7c-1.1,0.3-2.2,0.7-3.4,1.1c-2.8,0.9-5.5,1.9-8.1,3
	c-1.1,0.4-2.1,0.9-3.2,1.3c-2.7,1.2-5.4,2.4-8,3.8c-1.4,0.7-2.7,1.4-4.1,2.2c-1.8,1-3.6,2.1-5.4,3.3c-2,1.3-4.1,2.7-6,4.1
	c-1.6,1.1-3.2,2.3-4.8,3.5c-1.5,1.2-3,2.4-4.4,3.7c-1.1,1-2.2,1.9-3.3,2.9c-2.6,2.4-5.1,4.9-7.5,7.5c-0.8,0.9-1.6,1.7-2.4,2.6
	c-1.4,1.6-2.8,3.3-4.1,5c-0.8,1-1.5,1.9-2.2,2.9c-1.1,1.5-2,3-3.1,4.6c-11.7,18.6-18.6,40.5-18.6,64l-18.1,0
	c0-23.2,5.8-45,15.8-64.2c-11.3-4.3-23.5-6.9-36.3-6.9C46.6,230.1,0,276.7,0,334.1C0,388.8,42.2,433.5,95.8,437.7L95.8,437.7z"/>
</svg>
