<?xml version="1.0" encoding="utf-8"?>
<!-- Generator: Adobe Illustrator 26.1.0, SVG Export Plug-In . SVG Version: 6.00 Build 0)  -->
<svg version="1.1" id="Camada_1" xmlns="http://www.w3.org/2000/svg" xmlns:xlink="http://www.w3.org/1999/xlink" x="0px" y="0px"
	 viewBox="0 0 560 560" style="enable-background:new 0 0 560 560;" xml:space="preserve">
<style type="text/css">
	.st0{fill:#221F20;}
</style>
<path class="st0" d="M280,410c71.6,0,130-58.4,130-130s-58.4-130-130-130c-71.6,0-130,58.4-130,130C150,351.6,208.4,410,280,410
	L280,410z"/>
<path class="st0" d="M66.4,323.3L0,366.5l80.5-2.1c44.2-1.1,68.3,30.3,53.4,70l-27,72.1l63.8-46.7c35.1-25.6,73.9-13.6,86.5,26.8
	L280,560l22.7-73.4c12.5-40.3,51.4-52.4,86.5-26.8l63.8,46.7l-27-72.1c-14.8-39.7,9.2-71.1,53.4-70l80.5,2.1l-66.4-43.3
	c-36.5-23.8-36.5-62.7,0-86.5l66.4-43.3l-80.5,2.1c-44.2,1.1-68.3-30.3-53.4-70l27-72.1l-63.8,46.7c-35.1,25.6-73.9,13.6-86.5-26.8
	L280,0l-22.7,73.4c-12.5,40.3-51.4,52.4-86.5,26.8l-63.8-46.7l27,72.1c14.9,39.7-9.2,71.1-53.4,70L0,193.5l66.4,43.3
	C102.9,260.6,102.9,299.5,66.4,323.3L66.4,323.3z M280,129.2c83.2,0,150.8,67.6,150.8,150.8c0,83.1-67.6,150.8-150.8,150.8
	c-83.2,0-150.8-67.6-150.8-150.8S196.8,129.2,280,129.2L280,129.2z"/>
</svg>
