<?xml version="1.0" encoding="utf-8"?>
<!-- Generator: Adobe Illustrator 26.1.0, SVG Export Plug-In . SVG Version: 6.00 Build 0)  -->
<svg version="1.1" id="Camada_1" xmlns="http://www.w3.org/2000/svg" xmlns:xlink="http://www.w3.org/1999/xlink" x="0px" y="0px"
	 viewBox="0 0 560 560" style="enable-background:new 0 0 560 560;" xml:space="preserve">
<style type="text/css">
	.st0{fill:#221F20;}
</style>
<path class="st0" d="M125.8,284.3l-58.4,38.1l70.8-1.9c10.3-0.3,19.3,1.5,26.8,4.9c0.6-0.5,1.1-1,1.7-1.4c1.8-1.4,3.6-2.7,5.4-4
	c2.2-1.6,4.5-3.1,6.7-4.5c1.9-1.2,3.9-2.4,6.3-3.8c1.5-0.8,2.9-1.6,4.3-2.3c1.4-0.7,2.7-1.3,4-1.9c-9.4-18.4-14.8-39.2-14.8-61.2
	c0-74.5,60.6-135.1,135.1-135.1c74.5,0,135.1,60.6,135.1,135.1c0,50.7-28.1,94.9-69.6,118.1c2.7,4.5,5.2,9.2,7.4,14.1
	c23.6,0.1,45.2,8.4,62.4,22l-6.9-18.4c-13.1-34.9,8.1-62.6,47-61.6l70.8,1.9l-58.4-38.1c-32.1-20.9-32.1-55.1,0-76l58.4-38.1
	l-70.8,1.9c-38.9,1-60.1-26.7-47-61.6L465.9,47l-56.1,41.1c-30.9,22.6-65.1,12-76.1-23.5L313.7,0l-20,64.6
	c-11,35.5-45.2,46.1-76.1,23.5L161.5,47l23.7,63.4c13.1,34.9-8.1,62.6-47,61.6l-70.8-1.9l58.4,38.1
	C157.9,229.2,157.9,263.4,125.8,284.3L125.8,284.3z"/>
<path class="st0" d="M91.4,559.6v0.4h294.8c44.4,0,80.4-36,80.4-80.4c0-44.4-36-80.4-80.4-80.4c-4.6,0-9.1,0.5-13.4,1.2
	c-14.8-47.5-57.7-82.6-109.2-86v0.1c-2.7-0.2-5.4-0.4-8.2-0.4c-3.7,0-7.4,0.2-11.1,0.6c-0.9,0.1-1.9,0.2-2.8,0.3
	c-3.4,0.4-6.7,0.9-10,1.5c-0.3,0-0.5,0.1-0.8,0.1c-3.4,0.7-6.7,1.6-10,2.6c-1.1,0.3-2.2,0.6-3.2,1c-2.6,0.9-5.2,1.8-7.8,2.8
	c-0.7,0.3-1.3,0.5-2,0.8c-40,17.6-67.9,57.4-68,103.9H119c0-21.6,5.2-41.9,14.3-60c-10.6-3.9-22-6.3-33.9-6.3
	C44.5,361.4,0,405.8,0,460.7C0,512.9,40.3,555.6,91.4,559.6L91.4,559.6z"/>
<path class="st0" d="M313.7,131.9c-63,0-114.4,51.4-114.4,114.4c0,19.3,4.9,37.6,13.4,53.6l0.4-0.1l1.6-0.5c4.2-1.3,8.1-2.2,11.8-3
	l0.9-0.2l0.1,0c3.4-0.7,6.9-1.2,11.8-1.8c1.1-0.1,2.2-0.2,3.2-0.3c4.9-0.4,9-0.6,12.9-0.6c2.8,0,5.5,0.2,8.2,0.4l1.3,0
	c40.6,2.7,77.6,22.8,102.4,53.5c36.1-19.3,60.7-57.3,60.7-100.9C428.1,183.3,376.7,131.9,313.7,131.9L313.7,131.9z"/>
</svg>
