<?xml version="1.0" encoding="utf-8"?>
<!-- Generator: Adobe Illustrator 26.1.0, SVG Export Plug-In . SVG Version: 6.00 Build 0)  -->
<svg version="1.1" id="Camada_1" xmlns="http://www.w3.org/2000/svg" xmlns:xlink="http://www.w3.org/1999/xlink" x="0px" y="0px"
	 viewBox="0 0 560 560" style="enable-background:new 0 0 560 560;" xml:space="preserve">
<style type="text/css">
	.st0{fill:#221F20;}
</style>
<path class="st0" d="M187.1,408.2c6.2-11.8,3.8-29.2,6-44c3.2-22.3,7-36.5,7-36.5c0,0-9.6,11.1-26.2,26.3
	c-11.1,10.1-26.8,18-33,29.7c-6.8,12.8-1.9,28.6,10.9,35.4C164.4,425.9,180.3,421,187.1,408.2L187.1,408.2z"/>
<path class="st0" d="M49.3,408.2c6.2-11.8,3.8-29.2,6-44c3.3-22.3,7-36.5,7-36.5c0,0-9.6,11.1-26.2,26.3c-11,10.1-26.8,18-33,29.7
	c-6.8,12.8-1.9,28.6,10.9,35.4C26.7,425.9,42.6,421,49.3,408.2L49.3,408.2z"/>
<path class="st0" d="M68.8,469.1c-14.7,13.5-35.7,24-44,39.7c-9,17-2.5,38.1,14.5,47.2c17.1,9,38.2,2.5,47.2-14.6
	c8.3-15.6,5.1-38.9,8-58.7c4.3-29.7,9.3-48.6,9.3-48.6C103.8,434,90.9,448.8,68.8,469.1L68.8,469.1z"/>
<path class="st0" d="M205.4,469.1c-14.8,13.5-35.7,24-44,39.7c-9,17-2.5,38.1,14.5,47.2c17,9,38.2,2.5,47.2-14.6
	c8.3-15.6,5.1-38.9,8-58.7c4.3-29.7,9.3-48.6,9.3-48.6C240.3,434,227.5,448.8,205.4,469.1L205.4,469.1z"/>
<path class="st0" d="M449.2,354c-11.1,10.2-26.8,18-33,29.7c-6.8,12.8-1.9,28.6,10.9,35.4c12.8,6.7,28.6,1.9,35.4-10.9
	c6.2-11.8,3.8-29.2,6-44c3.2-22.3,7-36.5,7-36.5C475.4,327.7,465.7,338.8,449.2,354L449.2,354z"/>
<path class="st0" d="M341.9,469.1c-14.7,13.5-35.7,24-44,39.7c-9,17-2.5,38.1,14.5,47.2c17.1,9,38.2,2.5,47.2-14.6
	c8.3-15.6,5.1-38.9,8-58.7c4.3-29.7,9.3-48.6,9.3-48.6C376.9,434,364,448.8,341.9,469.1L341.9,469.1z"/>
<path class="st0" d="M324.7,408.2c6.2-11.8,3.8-29.2,6-44c3.2-22.3,7-36.5,7-36.5c0,0-9.6,11.1-26.2,26.3
	c-11.1,10.1-26.8,18-33,29.7c-6.8,12.8-1.9,28.6,10.9,35.4C302.1,425.9,318,421,324.7,408.2L324.7,408.2z"/>
<path class="st0" d="M109.8,294.7v0.5h353.8c53.3,0,96.5-43.2,96.5-96.5c0-53.3-43.2-96.5-96.5-96.5c-5.5,0-10.9,0.6-16.1,1.5
	c-17.8-57-69.2-99.2-131.1-103.2v0.1c-3.2-0.2-6.5-0.5-9.8-0.5c-4.5,0-8.9,0.3-13.3,0.7c-1.1,0.1-2.3,0.2-3.4,0.3
	c-4.1,0.5-8,1.1-12,1.8c-0.3,0.1-0.7,0.1-1,0.2c-4.1,0.8-8.1,1.9-12,3.1c-1.3,0.4-2.6,0.8-3.8,1.2c-3.2,1-6.3,2.2-9.3,3.4
	c-1.2,0.5-2.5,1-3.7,1.5c-3.1,1.4-6.1,2.8-9.1,4.4c-1.6,0.8-3.1,1.7-4.6,2.5c-2.1,1.2-4.2,2.5-6.2,3.8c-2.3,1.5-4.7,3.1-6.9,4.7
	c-1.8,1.3-3.7,2.6-5.4,4c-1.7,1.3-3.4,2.8-5.1,4.2c-1.3,1.1-2.5,2.2-3.7,3.3c-3,2.7-5.8,5.6-8.5,8.5c-0.9,1-1.9,2-2.8,3
	c-1.6,1.8-3.2,3.8-4.7,5.7c-0.9,1.1-1.7,2.2-2.5,3.3c-1.3,1.7-2.4,3.5-3.5,5.2c-13.4,21.3-21.2,46.4-21.3,73.4l-20.8,0
	c0-26.6,6.6-51.6,18.1-73.6c-12.9-5-26.9-7.9-41.6-7.9C53.4,56.7,0,110.1,0,175.9C0,238.6,48.4,289.8,109.8,294.7L109.8,294.7z"/>
</svg>
